<svg width="150" height="143" viewBox="0 0 150 143" fill="none" xmlns="http://www.w3.org/2000/svg">
<g clip-path="url(#clip0_53_575)">
<path d="M140.083 66.0417C126.042 40.0833 101.417 24.375 74.1666 24.375C46.9166 24.375 22.25 40.0833 8.33329 66.0417L7.16663 68L8.24996 70C22.2916 95.9583 46.9166 111.667 74.1666 111.667C101.417 111.667 126.083 96.1667 140.083 70L141.167 68L140.083 66.0417ZM74.1666 103.125C50.7083 103.125 29.1666 90.0417 16.6666 68C29.1666 45.9583 50.7083 32.875 74.1666 32.875C97.625 32.875 118.917 46 131.625 68C118.917 90.0417 97.5833 103.125 74.1666 103.125Z" fill="black"/>
<path d="M75.375 96.7083C91.1612 96.7083 103.958 83.9111 103.958 68.125C103.958 52.3388 91.1612 39.5416 75.375 39.5416C59.5889 39.5416 46.7917 52.3388 46.7917 68.125C46.7917 83.9111 59.5889 96.7083 75.375 96.7083Z" fill="#FF0909"/>
</g>
<defs>
<clipPath id="clip0_53_575">
<rect width="150" height="150" fill="white" transform="translate(0 -7)"/>
</clipPath>
</defs>
</svg>
